<svg xmlns="http://www.w3.org/2000/svg" viewBox="0 0 1600 520">
  <defs>
    <linearGradient id="sky" x1="0" y1="0" x2="0" y2="1">
      <stop offset="0" stop-color="#cfeaff"/>
      <stop offset="1" stop-color="#e9f6ff"/>
    </linearGradient>
    <linearGradient id="hill1" x1="0" y1="0" x2="1" y2="0">
      <stop offset="0" stop-color="#6fd35e"/>
      <stop offset="1" stop-color="#2fbf6c"/>
    </linearGradient>
    <linearGradient id="hill2" x1="0" y1="0" x2="1" y2="0">
      <stop offset="0" stop-color="#8de07b"/>
      <stop offset="1" stop-color="#55c07a"/>
    </linearGradient>
  </defs>

  <rect width="1600" height="520" fill="url(#sky)"/>
  <g opacity=".95">
    <path d="M0 360 C260 260 520 260 780 360 C1040 460 1260 460 1600 340 L1600 520 L0 520 Z" fill="url(#hill2)"/>
    <path d="M0 420 C260 340 540 340 820 420 C1100 500 1320 500 1600 400 L1600 520 L0 520 Z" fill="url(#hill1)"/>
  </g>

  <g fill="#ffffff" opacity=".95">
    <path d="M230 130c0-18 15-33 33-33 13 0 25 8 30 19 4-2 8-3 12-3 14 0 25 11 25 25 0 14-11 25-25 25H260c-17 0-30-14-30-33Z"/>
    <path d="M1180 110c0-16 13-29 29-29 12 0 22 7 26 17 3-1 7-2 10-2 12 0 22 10 22 22 0 12-10 22-22 22h-55c-16 0-30-13-30-30Z"/>
  </g>

  <rect x="12" y="12" width="1576" height="496" rx="22" ry="22" fill="none" stroke="#0b0f22" stroke-opacity=".12" stroke-width="24"/>
</svg>
